<svg xmlns="http://www.w3.org/2000/svg" width="49.5" height="49.289" viewBox="0 0 49.5 49.289">
  <g id="ico_acessibilidade" transform="translate(-785 -378)">
    <g id="Caminho_2" data-name="Caminho 2" transform="translate(785 378)" fill="#fff">
      <path d="M 24.75 48.28936004638672 C 21.54280090332031 48.28936004638672 18.43210983276367 47.66414260864258 15.50432968139648 46.43106079101562 C 12.6761999130249 45.23995208740234 10.13613986968994 43.53464126586914 7.954699993133545 41.36249160766602 C 5.773560047149658 39.19063186645508 4.061270236968994 36.66190338134766 2.865380048751831 33.84654235839844 C 1.627609968185425 30.93256187438965 1 27.83660125732422 1 24.64468193054199 C 1 21.45276260375977 1.627609968185425 18.35680198669434 2.865380048751831 15.44282150268555 C 4.061270236968994 12.62746238708496 5.773560047149658 10.09873199462891 7.954699993133545 7.926871776580811 C 10.13613986968994 5.754722118377686 12.6761999130249 4.049411773681641 15.50432968139648 2.858301877975464 C 18.43210983276367 1.625221967697144 21.54280090332031 1.000001907348633 24.75 1.000001907348633 C 27.95719909667969 1.000001907348633 31.06789016723633 1.625221967697144 33.99567031860352 2.858301877975464 C 36.82379913330078 4.049411773681641 39.36386108398438 5.754722118377686 41.5452995300293 7.926871776580811 C 43.7264404296875 10.09873199462891 45.43872833251953 12.62746238708496 46.63462066650391 15.44282150268555 C 47.87239074707031 18.35680198669434 48.5 21.45276260375977 48.5 24.64468193054199 C 48.5 27.83660125732422 47.87239074707031 30.93256187438965 46.63462066650391 33.84654235839844 C 45.43872833251953 36.66190338134766 43.7264404296875 39.19063186645508 41.5452995300293 41.36249160766602 C 39.36386108398438 43.53464126586914 36.82379913330078 45.23995208740234 33.99567031860352 46.43106079101562 C 31.06789016723633 47.66414260864258 27.95719909667969 48.28936004638672 24.75 48.28936004638672 Z" stroke="none"/>
      <path d="M 24.75 2.000003814697266 C 21.67683029174805 2.000003814697266 18.69672966003418 2.598842620849609 15.89247131347656 3.779903411865234 C 13.18342971801758 4.920852661132812 10.75017166137695 6.554512023925781 8.660301208496094 8.635490417480469 C 6.571018218994141 10.71588134765625 4.930999755859375 13.13774108886719 3.785789489746094 15.83378219604492 C 2.600830078125 18.62343215942383 2 21.58785247802734 2 24.64468193054199 C 2 27.70151138305664 2.600830078125 30.66593170166016 3.785789489746094 33.45558166503906 C 4.930999755859375 36.1516227722168 6.571018218994141 38.57348251342773 8.660301208496094 40.65386962890625 C 10.75017166137695 42.7348518371582 13.18342971801758 44.36851119995117 15.89247131347656 45.50946044921875 C 18.69672966003418 46.69052124023438 21.67683029174805 47.28936004638672 24.75 47.28936004638672 C 27.82316970825195 47.28936004638672 30.80327033996582 46.69052124023438 33.60752868652344 45.50946044921875 C 36.31657028198242 44.36851119995117 38.74983215332031 42.7348518371582 40.83969879150391 40.65386962890625 C 42.92897796630859 38.57348251342773 44.56900024414062 36.1516227722168 45.71421051025391 33.45558166503906 C 46.899169921875 30.66593170166016 47.5 27.70151138305664 47.5 24.64468193054199 C 47.5 21.58785247802734 46.899169921875 18.62343215942383 45.71421051025391 15.83378219604492 C 44.56900024414062 13.13774108886719 42.92897796630859 10.71588134765625 40.83969879150391 8.635490417480469 C 38.74983215332031 6.554512023925781 36.31657028198242 4.920852661132812 33.60752868652344 3.779903411865234 C 30.80327033996582 2.598842620849609 27.82316970825195 2.000003814697266 24.75 2.000003814697266 M 24.75 3.814697265625e-06 C 38.41905212402344 3.814697265625e-06 49.5 11.0338020324707 49.5 24.64468193054199 C 49.5 38.25556182861328 38.41905212402344 49.28936004638672 24.75 49.28936004638672 C 11.08095169067383 49.28936004638672 0 38.25556182861328 0 24.64468193054199 C 0 11.0338020324707 11.08095169067383 3.814697265625e-06 24.75 3.814697265625e-06 Z" stroke="none" fill="#005177"/>
    </g>
    <ellipse id="Elipse_2" data-name="Elipse 2" cx="20" cy="19.5" rx="20" ry="19.5" transform="translate(790 383)" fill="#005177"/>
    <ellipse id="Elipse_3" data-name="Elipse 3" cx="3.5" cy="3" rx="3.5" ry="3" transform="translate(806 388)" fill="#fff"/>
    <path id="União_4" data-name="União 4" d="M5.254,20.6a1.63,1.63,0,0,1,.139-.661l-.025-.008,2.845-8.335L8.7,4.226,1.527,3.344,1.535,3.3q-.053-.008-.106-.019a1.72,1.72,0,0,1-1.4-1.989A1.72,1.72,0,0,1,2.117.042L2.193.06,9.152,1.154a15.312,15.312,0,0,0,4.751,0c3.186-.37,7.141-.967,7.141-.967l0,.025A1.565,1.565,0,1,1,21.575,3.3l.008.048L14.358,4.4l.512,7.425,2.646,8.108h0a1.565,1.565,0,1,1-3.006.727l-2.651-7.868s-.455-.54-.626,0S8.587,20.632,8.5,20.89A1.636,1.636,0,0,1,5.254,20.6Z" transform="translate(798.237 394.455)" fill="#fff"/>
  </g>
</svg>
